#!OML:ASF I:\Random Stuff\random\construction\7_22_03\Session 2\subj1.ASF
:FULLY-SPECIFIED
:DEGREES
453
root -9.97245 17.7546 -6.18212 -179.353 103.015 -196.986
lowerback 13.3887 1.58099 -3.66722
upperback 4.848 1.73752 -2.36354
thorax -2.42856 0.93858 -0.666998
lowerneck -17.554 4.28887 4.35958
upperneck 40.8562 8.23531 -2.95531
head 18.7782 3.9269 -0.344515
rclavicle -2.70347e-014 -1.43125e-014
rhumerus -28.632 37.2256 -96.2779
rradius 70.9403
rwrist -2.23537
rhand -48.8678 37.6668
rfingers 7.12502
rthumb -21.5021 8.84024
lclavicle -2.70347e-014 -1.43125e-014
lhumerus 8.25836 -30.0967 86.6771
lradius 47.0682
lwrist -5.40567
lhand -13.6476 44.0585
lfingers 7.12502
lthumb 12.4689 73.6666
rfemur -20.3576 5.65179 13.9522
rtibia 2.56443
rfoot 2.43485 -8.36631
rtoes -24.264
lfemur -30.4586 -3.7788 -9.83828
ltibia 25.7807
lfoot -14.5959 13.6752
ltoes -26.2294
454
root -9.97153 17.755 -6.18085 -179.63 102.979 -197.27
lowerback 13.3433 1.55402 -3.61709
upperback 4.89065 1.71446 -2.34638
thorax -2.35831 0.92688 -0.671381
lowerneck -17.568 4.30091 4.36932
upperneck 40.874 8.25192 -2.95395
head 18.7945 3.93413 -0.341538
rclavicle 7.95139e-016 1.19271e-014
rhumerus -29.0071 37.1463 -96.4354
rradius 71.7627
rwrist -2.15619
rhand -49.3027 38.7531
rfingers 7.12502
rthumb -21.9197 9.9748
lclavicle 7.95139e-016 1.19271e-014
lhumerus 8.27977 -30.0879 86.6015
lradius 47.1289
lwrist -5.46299
lhand -13.6013 43.9779
lfingers 7.12502
lthumb 12.5135 73.5832
rfemur -20.2535 5.6223 14.0181
rtibia 2.39064
rfoot 2.50709 -8.34184
rtoes -24.171
lfemur -30.4673 -3.84896 -9.75089
ltibia 25.7923
lfoot -14.6306 13.6845
ltoes -26.037
455
root -9.97084 17.7554 -6.17882 -179.787 102.961 -197.432
lowerback 13.312 1.54003 -3.62085
upperback 4.91955 1.69985 -2.3327
thorax -2.31143 0.919231 -0.651234
lowerneck -17.5962 4.33016 4.38539
upperneck 40.9198 8.29994 -2.95441
head 18.8345 3.95415 -0.332922
rclavicle -1.03368e-014 4.6118e-014
rhumerus -29.4213 37.1139 -96.6135
rradius 72.6535
rwrist -1.98009
rhand -49.8854 40.0982
rfingers 7.12502
rthumb -22.4791 11.3865
lclavicle -1.03368e-014 4.6118e-014
lhumerus 8.27925 -30.1184 86.5145
lradius 47.2033
lwrist -5.5269
lhand -13.7145 43.926
lfingers 7.12502
lthumb 12.4044 73.538
rfemur -20.1745 5.6103 14.057
rtibia 2.25515
rfoot 2.55913 -8.33266
rtoes -23.9365
lfemur -30.4782 -3.93806 -9.68177
ltibia 25.8063
lfoot -14.6605 13.739
ltoes -25.93
456
root -9.96991 17.7544 -6.18155 -180.018 102.77 -197.629
lowerback 13.3716 1.43729 -3.5454
upperback 4.95087 1.57475 -2.32496
thorax -2.30729 0.858461 -0.667593
lowerneck -17.5538 4.36763 4.41496
upperneck 40.8874 8.37082 -3.01512
head 18.8143 3.97823 -0.35373
rclavicle 2.62396e-014 3.10104e-014
rhumerus -29.7949 37.2069 -96.8135
rradius 73.5365
rwrist -1.6766
rhand -50.5419 41.7727
rfingers 7.12502
rthumb -23.1091 13.1386
lclavicle 2.62396e-014 3.10104e-014
lhumerus 8.2872 -30.1071 86.4136
lradius 47.2542
lwrist -5.57118
lhand -13.88 44.0188
lfingers 7.12502
lthumb 12.2448 73.6404
rfemur -20.0207 5.42544 14.0955
rtibia 2.12593
rfoot 2.60465 -8.33018
rtoes -24.0564
lfemur -30.5054 -4.08967 -9.66404
ltibia 25.819
lfoot -14.6466 13.7174
ltoes -25.9963
457
root -9.96798 17.7528 -6.18809 -180.465 102.416 -197.954
lowerback 13.5583 1.27766 -3.3289
upperback 4.99644 1.38829 -2.33855
thorax -2.35289 0.76985 -0.779074
lowerneck -17.4778 4.3604 4.42282
upperneck 40.831 8.35981 -3.03773
head 18.7605 3.9737 -0.371453
rclavicle 1.03368e-014 -3.97569e-015
rhumerus -30.0107 37.194 -96.9703
rradius 74.29
rwrist -1.29622
rhand -51.2006 43.8728
rfingers 7.12502
rthumb -23.741 15.3193
lclavicle 1.03368e-014 -3.97569e-015
lhumerus 8.28731 -30.217 86.2564
lradius 47.3365
lwrist -5.5731
lhand -13.9779 44.1183
lfingers 7.12502
lthumb 12.1505 73.7454
rfemur -19.6833 5.08174 14.1589
rtibia 1.91114
rfoot 2.65984 -8.30994
rtoes -24.2483
lfemur -30.493 -4.24587 -9.69662
ltibia 25.8437
lfoot -14.6438 13.5431
ltoes -26.0565
458
root -9.9674 17.7518 -6.18852 -181.123 102.238 -198.514
lowerback 13.6761 1.20405 -3.14763
upperback 5.02176 1.31211 -2.33354
thorax -2.38584 0.734448 -0.866529
lowerneck -17.4477 4.33206 4.37902
upperneck 40.8694 8.31368 -2.9712
head 18.7644 3.95959 -0.342536
rclavicle -1.59028e-014 4.13472e-014
rhumerus -30.13 37.0176 -97.0822
rradius 74.8916
rwrist -0.917388
rhand -51.6285 44.1377
rfingers 7.12502
rthumb -24.1513 15.638
lclavicle -1.59028e-014 4.13472e-014
lhumerus 8.26997 -30.4123 86.1102
lradius 47.3914
lwrist -5.61591
lhand -14.0986 44.099
lfingers 7.12502
lthumb 12.034 73.733
rfemur -19.3871 4.9192 14.2875
rtibia 1.66753
rfoot 2.72025 -8.30526
rtoes -23.9337
lfemur -30.4526 -4.29318 -9.62347
ltibia 25.8795
lfoot -14.6665 13.39
ltoes -25.9146
459
root -9.96813 17.7506 -6.18288 -181.881 102.235 -199.234
lowerback 13.6791 1.19432 -3.06498
upperback 5.01875 1.31006 -2.29209
thorax -2.3902 0.733301 -0.869474
lowerneck -17.4049 4.30607 4.33851
upperneck 40.9495 8.28574 -2.91631
head 18.7929 3.95233 -0.315513
rclavicle 2.8625e-014 -1.19271e-014
rhumerus -30.2192 36.8266 -97.1896
rradius 75.2798
rwrist -0.333395
rhand -52.1951 44.6857
rfingers 7.12502
rthumb -24.6945 16.2593
lclavicle 2.8625e-014 -1.19271e-014
lhumerus 8.26584 -30.5779 85.9765
lradius 47.3924
lwrist -5.74232
lhand -14.1584 44.1538
lfingers 7.12502
lthumb 11.9764 73.7912
rfemur -19.0707 4.92856 14.459
rtibia 1.17586
rfoot 2.91143 -8.26411
rtoes -23.4676
lfemur -30.4318 -4.25163 -9.44444
ltibia 25.9278
lfoot -14.6854 13.2698
ltoes -25.664
